<svg xmlns="http://www.w3.org/2000/svg" width="77" height="76" viewBox="0 0 77 76">
  <g id="facebook-icon" transform="translate(-2007 -8872)">
    <ellipse id="circle_копия" data-name="circle копия" cx="38.5" cy="38" rx="38.5" ry="38" transform="translate(2007 8872)" fill="#4267b2"/>
    <path id="fa-facebook_копия" data-name="fa-facebook копия" d="M2050.639,8888.672a9.672,9.672,0,0,0-7,2.528,9.407,9.407,0,0,0-2.628,7.114v5.375h-6.444v7.3h6.444V8929.7h7.733v-18.714h6.419l.986-7.3h-7.405v-4.662a4.018,4.018,0,0,1,.758-2.662,3.769,3.769,0,0,1,2.932-.888h3.968v-6.51a42.84,42.84,0,0,0-5.762-.3Z" fill="#fff"/>
  </g>
</svg>
